<svg width="280" height="140" viewBox="0 0 280 140" fill="none" xmlns="http://www.w3.org/2000/svg">
<rect width="280" height="140" fill="white"/>
<rect width="280" height="140" fill="#F4F5F7"/>
<mask id="mask0" mask-type="alpha" maskUnits="userSpaceOnUse" x="0" y="0" width="280" height="140">
<rect width="280" height="140" fill="#F4F5F7"/>
</mask>
<g mask="url(#mask0)">
<g filter="url(#filter0_d)">
<rect width="280" height="126" fill="white"/>
<rect x="-0.5" y="-0.5" width="281" height="127" stroke="black" stroke-opacity="0.04"/>
</g>
<rect x="94" y="42" width="92" height="4" rx="2" fill="#6B7280"/>
<rect x="78" y="52" width="124" height="4" rx="2" fill="#6B7280"/>
<rect x="92" y="64" width="95" height="2" rx="1" fill="#D2D6DC"/>
<rect x="90" y="70" width="100" height="2" rx="1" fill="#D2D6DC"/>
<rect x="96" y="76" width="88" height="2" rx="1" fill="#D2D6DC"/>
<g filter="url(#filter1_dd)">
<rect x="97" y="88" width="40" height="12" rx="3" fill="#4B5563"/>
</g>
<rect x="108" y="93" width="18" height="2" rx="1" fill="#9FA6B2"/>
<rect x="143" y="88" width="40" height="12" rx="3" fill="#E5E7EB"/>
<rect x="154" y="93" width="18" height="2" rx="1" fill="#9FA6B2"/>
<rect x="30" y="16" width="10" height="10" rx="5" fill="#6B7280"/>
<rect x="234" y="20" width="16" height="2" rx="1" fill="#9FA6B2"/>
<rect x="210" y="20" width="16" height="2" rx="1" fill="#9FA6B2"/>
<rect x="186" y="20" width="16" height="2" rx="1" fill="#9FA6B2"/>
</g>
<defs>
<filter id="filter0_d" x="-3" y="-2" width="286" height="132" filterUnits="userSpaceOnUse" color-interpolation-filters="sRGB">
<feFlood flood-opacity="0" result="BackgroundImageFix"/>
<feColorMatrix in="SourceAlpha" type="matrix" values="0 0 0 0 0 0 0 0 0 0 0 0 0 0 0 0 0 0 127 0"/>
<feOffset dy="1"/>
<feGaussianBlur stdDeviation="1"/>
<feColorMatrix type="matrix" values="0 0 0 0 0 0 0 0 0 0 0 0 0 0 0 0 0 0 0.04 0"/>
<feBlend mode="normal" in2="BackgroundImageFix" result="effect1_dropShadow"/>
<feBlend mode="normal" in="SourceGraphic" in2="effect1_dropShadow" result="shape"/>
</filter>
<filter id="filter1_dd" x="94" y="86" width="46" height="18" filterUnits="userSpaceOnUse" color-interpolation-filters="sRGB">
<feFlood flood-opacity="0" result="BackgroundImageFix"/>
<feColorMatrix in="SourceAlpha" type="matrix" values="0 0 0 0 0 0 0 0 0 0 0 0 0 0 0 0 0 0 127 0"/>
<feOffset dy="1"/>
<feGaussianBlur stdDeviation="1"/>
<feColorMatrix type="matrix" values="0 0 0 0 0 0 0 0 0 0 0 0 0 0 0 0 0 0 0.06 0"/>
<feBlend mode="normal" in2="BackgroundImageFix" result="effect1_dropShadow"/>
<feColorMatrix in="SourceAlpha" type="matrix" values="0 0 0 0 0 0 0 0 0 0 0 0 0 0 0 0 0 0 127 0"/>
<feOffset dy="1"/>
<feGaussianBlur stdDeviation="1.5"/>
<feColorMatrix type="matrix" values="0 0 0 0 0 0 0 0 0 0 0 0 0 0 0 0 0 0 0.1 0"/>
<feBlend mode="normal" in2="effect1_dropShadow" result="effect2_dropShadow"/>
<feBlend mode="normal" in="SourceGraphic" in2="effect2_dropShadow" result="shape"/>
</filter>
</defs>
</svg>
